HIERARCHY
ROOT root
{
	OFFSET 0.000000 0.000000 0.000000
	CHANNELS 6 Xposition Yposition Zposition Zrotation Yrotation Xrotation
	JOINT lhip
	{
		OFFSET 0.058581 -0.082280 -0.017664
		CHANNELS 3 Zrotation Yrotation Xrotation
		JOINT lknee
		{
			OFFSET 0.043451 -0.386469 0.008037
			CHANNELS 3 Zrotation Yrotation Xrotation
			JOINT lankle
			{
				OFFSET -0.014790 -0.426874 -0.037428
				CHANNELS 3 Zrotation Yrotation Xrotation
				JOINT ltoe
				{
					OFFSET 0.041054 -0.060286 0.122042
					CHANNELS 3 Zrotation Yrotation Xrotation
					End Site
					{
						OFFSET 0.000000 0.000000 0.000000
					}
				}
			}
		}
	}
	JOINT rhip
	{
		OFFSET -0.060310 -0.090513 -0.013543
		CHANNELS 3 Zrotation Yrotation Xrotation
		JOINT rknee
		{
			OFFSET -0.043257 -0.383688 -0.004843
			CHANNELS 3 Zrotation Yrotation Xrotation
			JOINT rankle
			{
				OFFSET 0.019056 -0.420046 -0.034562
				CHANNELS 3 Zrotation Yrotation Xrotation
				JOINT rtoe
				{
					OFFSET -0.034840 -0.062106 0.130323
					CHANNELS 3 Zrotation Yrotation Xrotation
					End Site
					{
						OFFSET 0.000000 0.000000 0.000000
					}
				}
			}
		}
	}
	JOINT lowerback
	{
		OFFSET 0.004439 0.124404 -0.038385
		CHANNELS 3 Zrotation Yrotation Xrotation
		JOINT upperback
		{
			OFFSET 0.004488 0.137956 0.026820
			CHANNELS 3 Zrotation Yrotation Xrotation
			JOINT chest
			{
				OFFSET -0.002265 0.056032 0.002855
				CHANNELS 3 Zrotation Yrotation Xrotation
				JOINT lowerneck
				{
					OFFSET -0.013390 0.211636 -0.033468
					CHANNELS 3 Zrotation Yrotation Xrotation
					JOINT upperneck
					{
						OFFSET 0.010113 0.088937 0.050410
						CHANNELS 3 Zrotation Yrotation Xrotation
						End Site
						{
							OFFSET 0.000000 0.000000 0.000000
						}
					}
				}
				JOINT lclavicle
				{
					OFFSET 0.071702 0.114000 -0.018898
					CHANNELS 3 Zrotation Yrotation Xrotation
					JOINT lshoulder
					{
						OFFSET 0.122921 0.045205 -0.019046
						CHANNELS 3 Zrotation Yrotation Xrotation
						JOINT lelbow
						{
							OFFSET 0.255332 -0.015649 -0.022946
							CHANNELS 3 Zrotation Yrotation Xrotation
							JOINT lwrist
							{
								OFFSET 0.265709 0.012698 -0.007375
								CHANNELS 3 Zrotation Yrotation Xrotation
								End Site
								{
									OFFSET 0.000000 0.000000 0.000000
								}
							}
						}
					}
				}
				JOINT rclavicle
				{
					OFFSET -0.082954 0.112472 -0.023707
					CHANNELS 3 Zrotation Yrotation Xrotation
					JOINT rshoulder
					{
						OFFSET -0.113228 0.046853 -0.008472
						CHANNELS 3 Zrotation Yrotation Xrotation
						JOINT relbow
						{
							OFFSET -0.260127 -0.014369 -0.031269
							CHANNELS 3 Zrotation Yrotation Xrotation
							JOINT rwrist
							{
								OFFSET -0.269108 0.006794 -0.006027
								CHANNELS 3 Zrotation Yrotation Xrotation
								End Site
								{
									OFFSET 0.000000 0.000000 0.000000
								}
							}
						}
					}
				}
			}
		}
	}
}
MOTION
Frames: 14
Frame Time: 0.033333
-1.355080 0.230916 0.927811 87.296057 2.852741 86.398823 2.531868 2.387187 1.293111 -1.971464 2.077373 100.794336 0.423357 7.250632 -1.380890 0.000000 -0.000000 0.000000 9.296823 5.908641 -14.649988 -2.486234 -3.446953 37.950988 -5.563166 -16.119604 -25.909450 0.000000 -0.000000 0.000000 0.542849 -5.484353 22.591944 3.000130 0.295221 0.029476 1.191070 -3.162860 2.276265 -0.632503 0.694223 -16.951900 -3.307743 9.466296 -3.484155 -29.065433 4.337432 -0.342503 -55.973028 -5.104651 16.090010 -166.994304 -73.949050 -171.419690 29.828075 -10.655995 -12.558308 28.001965 2.224795 -2.267771 48.504488 2.982570 16.192091 -77.393527 76.131635 -66.703906 -17.511043 16.172128 -1.383555 
-1.251275 0.231618 0.927861 87.095400 1.544559 86.997792 2.284533 -1.359198 -12.937480 -1.494973 6.623714 109.249452 3.435718 7.213621 -6.698462 0.000000 -0.000000 0.000000 8.434040 2.640786 -6.565570 -1.619659 0.267751 36.328170 -3.960450 -16.713037 -30.656528 0.000000 -0.000000 0.000000 0.274233 -1.379619 22.579486 3.632000 -1.287457 -0.972626 0.717565 -2.283216 2.634297 0.174708 -0.845159 -16.900842 -3.626463 8.909629 -2.825403 -29.097193 6.171963 1.033492 -55.619013 -2.770017 13.438302 -154.475110 -75.691653 177.149817 30.571481 -8.853873 -16.510618 26.953291 3.290359 -3.542734 50.230338 10.005610 15.433811 -93.942750 75.622962 -80.268755 -17.605983 15.521326 -2.596406 
-1.143730 0.231963 0.943805 83.795024 -0.612959 87.794712 2.647037 -2.444991 -25.274093 -0.979574 11.271645 107.356882 4.241707 5.426386 -9.042761 0.000000 -0.000000 0.000000 5.641077 -0.170554 2.096806 -1.795664 5.361850 32.235147 -0.858164 -13.807575 -28.972875 0.000000 -0.000000 0.000000 -0.548899 4.588030 22.281853 2.342269 -1.110732 -2.176349 0.223283 -0.463651 2.799932 1.067062 -2.402074 -17.588149 -2.191525 6.762132 -0.285258 -27.794211 6.545182 0.611200 -54.815055 1.478648 12.920785 -146.427205 -74.661315 168.636082 30.151382 -8.564724 -17.425788 25.049473 4.659014 -4.406375 53.912544 11.149124 15.573152 -113.380129 70.872742 -98.608292 -14.349651 16.315673 -2.624390 
-0.998009 0.234298 0.976854 79.651009 -3.180360 90.821022 4.700294 -3.976691 -36.229606 -0.774691 17.515371 93.000917 5.391037 1.778623 -9.846223 0.000000 -0.000000 0.000000 -1.459883 -2.838977 10.449658 -2.706276 9.228877 24.194750 6.393180 -5.312698 -15.636879 0.000000 -0.000000 0.000000 -2.810033 11.415754 16.903138 1.286475 -0.891441 -1.045369 -0.727471 1.870328 1.946979 1.347619 -2.605922 -14.512957 -0.071757 3.144817 -1.118511 -26.288712 8.916093 1.267541 -54.406775 4.452178 12.863450 -141.910717 -73.655693 162.353699 28.404768 -10.063212 -15.942860 24.795204 3.363511 -2.821537 55.084567 12.320107 16.496048 -127.180725 67.856845 -112.464293 -17.474093 14.667721 -2.770755 
-0.911060 0.239442 1.003067 81.741800 -4.118579 91.100554 5.172595 -8.836473 -39.149719 -1.772400 19.316582 79.423334 4.284292 2.947188 -8.569660 0.000000 -0.000000 0.000000 -5.855685 -6.154895 16.164639 -2.889970 8.023427 17.924333 13.229836 -1.244655 -0.028152 0.000000 -0.000000 0.000000 -1.127705 14.564758 18.526816 0.602953 -3.608541 -3.241930 -1.677537 1.068438 2.493672 0.819209 -3.144873 -16.678619 0.721690 2.204099 -0.145428 -26.010028 11.369653 -0.292823 -54.550492 6.209304 13.687881 -140.541342 -73.993066 159.970512 26.929589 -11.222433 -15.658109 24.414711 1.095247 -5.013263 55.185260 12.118584 18.989355 -133.076591 69.385925 -119.170738 -21.038367 15.772930 -2.220764 
-0.787203 0.234676 1.026219 80.501547 -4.339247 93.752597 6.112084 -8.483617 -40.910886 -4.483012 17.619724 58.739950 4.854031 2.617425 -7.775732 0.000000 -0.000000 0.000000 -8.281348 -6.947292 20.211189 -4.415771 10.005668 11.271553 15.299783 -1.664245 20.075870 0.000000 -0.000000 0.000000 -3.802118 15.679728 13.448252 -0.217661 -2.735048 -2.938351 -0.749772 1.822076 2.461803 -0.758634 -5.540658 -14.977471 2.926286 3.350335 -1.822865 -24.401837 14.407870 1.059908 -55.756410 8.454410 11.880343 -144.257259 -73.568996 163.585474 25.059476 -10.789378 -15.670701 23.561221 -0.650398 -3.916767 55.340614 11.356092 19.217418 -145.543179 71.764635 -130.625801 -15.345760 16.709511 -1.209789 
-0.667961 0.234543 1.039430 82.074015 -3.209621 94.765420 5.145832 -9.129695 -39.147215 -6.788175 8.357368 37.898529 5.570025 5.295846 -5.440088 0.000000 -0.000000 0.000000 -5.118654 -6.090170 22.258264 -4.966778 18.152009 15.820246 11.079765 -2.916045 22.311608 0.000000 -0.000000 0.000000 -3.177354 14.184732 11.661163 -0.795244 -1.979519 -3.158922 -0.625628 1.592677 2.535334 -1.568896 -7.305603 -16.159666 3.336996 4.331406 -0.696340 -24.144699 16.347394 0.690996 -56.047130 10.004141 10.458604 -146.752052 -72.689664 167.072944 26.788119 -9.740765 -17.637976 21.802580 -1.134279 -4.030346 55.054043 8.815669 19.938850 -158.729188 73.698148 -142.467424 -13.206862 17.534434 -2.589823 
-0.548821 0.236431 1.043432 83.634679 -3.055316 92.449363 1.951754 -10.569150 -30.394900 -3.732013 2.486614 18.300869 4.006556 8.968405 -3.953507 0.000000 -0.000000 0.000000 -1.269290 -2.496257 23.577741 -3.635615 17.389970 29.825096 10.991554 -4.417841 17.485778 0.000000 -0.000000 0.000000 -3.630882 10.645809 13.167172 -1.069272 -0.711414 -1.012017 -0.392313 2.056070 2.262906 -0.816579 -6.950288 -18.053025 2.343261 4.740842 -1.816471 -26.696250 16.335142 -1.779102 -54.811099 10.034989 11.387643 -158.470891 -73.562269 178.399663 24.619535 -10.693029 -16.060596 21.892355 -0.355749 -4.744941 54.259383 5.726173 21.591978 -158.616473 75.847889 -143.132794 -8.869017 18.972259 -0.425153 
-0.428946 0.238845 1.034022 85.209215 -2.958078 92.023184 -2.056289 -8.264421 -25.604822 -1.358205 1.723506 10.502929 3.848445 10.870905 -3.330301 0.000000 -0.000000 0.000000 -0.365769 -2.247033 20.303531 -3.672772 11.948499 45.052843 12.434613 -6.071922 20.790542 0.000000 -0.000000 0.000000 -4.429001 7.624388 12.254681 -1.436177 -0.053250 -0.294481 -0.464561 2.617046 2.542862 -0.380358 -6.971548 -16.379614 3.121566 5.549305 -4.258966 -28.645820 14.498534 -2.506168 -52.914831 7.581003 11.536480 -165.311123 -74.855986 -175.881718 26.246298 -9.901139 -15.147507 23.094215 -0.917427 -4.357234 52.692007 3.292758 21.000422 -159.893055 81.778370 -145.186398 -11.633055 18.161104 -0.955386 
-0.281840 0.242988 1.004396 86.790979 -3.862621 91.540141 -3.620727 -11.093373 -21.705584 -4.310635 3.529463 14.359661 11.269059 13.563040 -8.628261 0.000000 -0.000000 0.000000 -2.485250 -2.298561 12.890286 -4.286123 6.042427 66.770982 9.100143 -12.616667 18.771620 0.000000 -0.000000 0.000000 -5.643410 6.762056 11.106743 -1.319506 -0.537451 0.201193 -1.317330 1.395683 2.606231 0.036717 -8.459457 -13.990247 4.330934 7.499190 -2.949897 -29.943755 10.616181 -1.605862 -51.192166 2.363520 12.811473 178.667633 -76.224281 -164.480582 25.957719 -9.701806 -14.296832 23.935085 -1.526279 -3.543544 53.579107 -2.642287 22.005938 -88.636215 83.380643 -77.068525 -4.004723 15.754566 5.424712 
-0.167337 0.245185 0.973087 88.586841 -3.569922 89.687301 -5.549727 -9.356934 -20.076531 -6.262668 2.520136 29.097126 17.483394 16.388152 -23.105517 0.000000 -0.000000 0.000000 -3.019182 -2.424688 6.811157 -5.117478 3.251499 82.995508 7.029160 -16.536140 13.944008 0.000000 -0.000000 0.000000 -5.805376 4.660905 14.124970 -1.258710 -0.652584 -2.068300 -1.512681 0.735269 4.024481 0.548651 -8.784109 -14.235871 4.466712 8.771306 -1.593278 -30.997035 6.747066 -1.500516 -49.779260 -3.613193 12.700262 173.399861 -75.641228 -160.055515 26.565904 -9.055214 -15.111381 25.215573 -2.398124 -3.590300 53.186754 -6.474541 21.127830 -52.130091 79.018254 -41.488917 -3.682229 16.710123 9.616540 
-0.061787 0.249875 0.950936 92.817328 -2.631005 87.892455 -7.107680 -8.868480 -15.592251 -6.463781 0.269792 38.116100 17.477998 19.110995 -32.046815 0.000000 -0.000000 0.000000 -2.435763 -2.532877 -1.874501 -4.436858 -0.126714 95.934022 6.116002 -18.490535 7.016313 0.000000 -0.000000 0.000000 -4.827298 2.463270 18.661051 -0.427146 -2.291272 -2.287993 -1.844683 -1.013241 4.439382 1.185799 -7.105485 -17.626120 3.900527 7.614342 -1.576150 -31.896784 1.138595 -2.464475 -48.870613 -9.773593 13.455167 165.917061 -74.540336 -150.426772 28.371594 -10.427295 -12.120757 27.169594 -2.200963 -3.891204 52.539743 -9.488048 19.131437 -47.012057 73.051139 -35.537511 -4.689357 17.454501 14.201068 
0.047939 0.252504 0.946976 95.075641 -1.018628 86.569729 -7.029491 -5.479680 -5.634535 -6.113585 -4.804112 37.447411 15.904775 18.778392 -36.776439 0.000000 -0.000000 0.000000 -1.177915 -1.377191 -11.859988 -3.933349 -2.822380 101.282574 4.230717 -18.053115 2.564050 0.000000 -0.000000 0.000000 -3.984030 -0.714804 22.011987 0.207373 -2.250051 -2.612860 -1.247898 -2.328222 3.649025 -0.317459 -5.073573 -16.711156 3.636378 8.132275 -3.931447 -31.881317 -2.619892 -2.753622 -49.186817 -17.326104 13.068691 161.884379 -73.352285 -147.401050 23.445893 -11.727692 -10.974008 27.525380 -2.983510 -3.354991 52.788826 -12.922916 17.013267 -47.326779 70.756504 -36.067753 -3.168769 16.650762 16.085280 
0.160954 0.255246 0.960414 97.760410 0.887582 86.029872 -4.456946 -1.581955 5.321056 -6.330598 -11.668970 32.344517 11.079793 16.971030 -34.792985 0.000000 -0.000000 0.000000 -0.446643 -0.437593 -20.688950 -3.908397 -6.021393 98.130968 5.092174 -15.537361 0.805414 0.000000 -0.000000 0.000000 -2.868861 -5.460558 23.359560 0.793091 -2.211955 -3.264723 -0.664726 -3.955568 3.847252 -1.407682 -2.483588 -16.879175 2.368056 8.724454 -3.273457 -30.603152 -3.675094 -4.026323 -51.616632 -22.278027 13.595169 161.109888 -71.998704 -145.058621 23.092000 -12.119209 -11.996947 26.800181 -5.275237 -3.781081 52.769848 -14.886894 16.025891 -43.106219 72.300365 -31.450016 -4.812590 16.925341 11.288248 
